<svg width="20" height="20" viewBox="0 0 20 20" fill="none" xmlns="http://www.w3.org/2000/svg">
<path d="M17 5.3335H3.66667C2.74619 5.3335 2 6.07969 2 7.00016V15.3335C2 16.254 2.74619 17.0002 3.66667 17.0002H17C17.9205 17.0002 18.6667 16.254 18.6667 15.3335V7.00016C18.6667 6.07969 17.9205 5.3335 17 5.3335Z" stroke="#C9C9E8" stroke-width="1.6" stroke-linecap="round" stroke-linejoin="round"/>
<path d="M13.6667 17V3.66667C13.6667 3.22464 13.4911 2.80072 13.1785 2.48816C12.866 2.17559 12.442 2 12 2H8.66667C8.22464 2 7.80072 2.17559 7.48816 2.48816C7.1756 2.80072 7 3.22464 7 3.66667V17" stroke="#C9C9E8" stroke-width="1.6" stroke-linecap="round" stroke-linejoin="round"/>
</svg>
